<?xml version="1.0" encoding="UTF-8" standalone="no"?>
<!DOCTYPE svg PUBLIC "-//W3C//DTD SVG 1.1//EN" "http://www.w3.org/Graphics/SVG/1.1/DTD/svg11.dtd">
<svg width="100%" height="100%" viewBox="0 0 80 80" version="1.1" xmlns="http://www.w3.org/2000/svg" xmlns:xlink="http://www.w3.org/1999/xlink" xml:space="preserve" xmlns:serif="http://www.serif.com/" style="fill-rule:evenodd;clip-rule:evenodd;stroke-linejoin:round;stroke-miterlimit:2;">
    <g transform="matrix(0.266667,0,0,0.266667,40,40)">
        <g transform="matrix(1,0,0,1,-102.083333,-150)">
            <g transform="matrix(4.166667,0,0,4.166667,0,0)">
                <path d="M30.156,13.281C28.281,13.281 26.667,12.656 25.312,11.406C24.062,10.052 23.438,8.49 23.438,6.719C23.438,4.844 24.062,3.281 25.312,2.031C26.667,0.677 28.281,0 30.156,0C32.031,0 33.594,0.677 34.844,2.031C36.198,3.281 36.875,4.844 36.875,6.719C36.875,8.49 36.198,10.052 34.844,11.406C33.594,12.656 32.031,13.281 30.156,13.281ZM43.438,30.938L43.438,25L48.438,25L48.438,71.719L43.438,71.719L43.438,37.812C40.833,37.292 38.385,36.354 36.094,35C33.802,33.542 31.823,31.875 30.156,30L28.125,40L35.156,46.719L35.156,71.719L28.438,71.719L28.438,51.719L21.562,45L15.469,71.719L8.438,71.719C8.438,71.719 8.594,70.833 8.906,69.062C9.323,67.292 9.792,64.948 10.312,62.031C10.938,59.01 11.615,55.729 12.344,52.188C13.073,48.646 13.75,45.104 14.375,41.562C15.104,37.917 15.781,34.531 16.406,31.406C17.031,28.281 17.552,25.677 17.969,23.594C18.385,21.51 18.646,20.26 18.75,19.844C19.062,18.281 19.792,17.083 20.938,16.25C22.188,15.417 23.438,15 24.688,15C25.938,15 27.083,15.312 28.125,15.938C29.271,16.458 30.156,17.24 30.781,18.281L34.219,23.594C35.156,25.365 36.406,26.875 37.969,28.125C39.635,29.375 41.458,30.312 43.438,30.938ZM10,38.75L14.375,15.938L10.625,15.156C8.75,14.74 7.031,15.052 5.469,16.094C4.01,17.135 3.125,18.594 2.812,20.469L0.156,33.438C0.052,34.375 0.26,35.26 0.781,36.094C1.302,36.823 1.979,37.24 2.812,37.344L10,38.75Z" style="fill:rgb(140,140,140);fill-rule:nonzero;"/>
            </g>
        </g>
    </g>
</svg>
