<?xml version="1.0" encoding="UTF-8" standalone="no"?>
<!DOCTYPE svg PUBLIC "-//W3C//DTD SVG 1.1//EN" "http://www.w3.org/Graphics/SVG/1.1/DTD/svg11.dtd">
<svg width="100%" height="100%" viewBox="0 0 80 51" version="1.1" xmlns="http://www.w3.org/2000/svg" xmlns:xlink="http://www.w3.org/1999/xlink" xml:space="preserve" xmlns:serif="http://www.serif.com/" style="fill-rule:evenodd;clip-rule:evenodd;stroke-linejoin:round;stroke-miterlimit:2;">
    <g transform="matrix(1,0,0,1,0,-14.594595)">
        <g transform="matrix(0.259459,0,0,0.259459,40,40)">
            <g transform="matrix(1,0,0,1,-154.166667,-97.916667)">
                <g transform="matrix(4.166667,0,0,4.166667,0,0)">
                    <path d="M46.719,20L63.438,20L50,6.562L46.719,6.562L46.719,20ZM51.406,40.156C52.448,41.094 53.646,41.562 55,41.562C56.354,41.562 57.5,41.094 58.438,40.156C59.479,39.115 60,37.917 60,36.562C60,35.208 59.479,34.062 58.438,33.125C57.5,32.083 56.354,31.562 55,31.562C53.646,31.562 52.448,32.083 51.406,33.125C50.469,34.062 50,35.208 50,36.562C50,37.917 50.469,39.115 51.406,40.156ZM40,20L40,6.562L26.719,6.562L26.719,20L40,20ZM13.125,40.156C14.062,41.094 15.26,41.562 16.719,41.562C18.177,41.562 19.375,41.094 20.312,40.156C21.25,39.115 21.719,37.917 21.719,36.562C21.719,35.208 21.25,34.062 20.312,33.125C19.375,32.083 18.177,31.562 16.719,31.562C15.26,31.562 14.062,32.083 13.125,33.125C12.188,34.062 11.719,35.208 11.719,36.562C11.719,37.917 12.188,39.115 13.125,40.156ZM6.719,20L20,20L20,6.562L6.719,6.562L6.719,20ZM53.438,0L73.438,20L73.438,36.562L65,36.562C65,39.271 64.01,41.615 62.031,43.594C60.052,45.573 57.708,46.562 55,46.562C52.292,46.562 49.948,45.573 47.969,43.594C45.99,41.615 45,39.271 45,36.562L26.719,36.562C26.719,39.271 25.729,41.615 23.75,43.594C21.771,45.573 19.427,46.562 16.719,46.562C14.01,46.562 11.667,45.573 9.688,43.594C7.708,41.615 6.719,39.271 6.719,36.562L0,36.562L0,6.562C0,4.688 0.625,3.125 1.875,1.875C3.229,0.625 4.844,0 6.719,0L53.438,0Z" style="fill:rgb(140,140,140);fill-rule:nonzero;"/>
                </g>
            </g>
        </g>
    </g>
</svg>
