<?xml version="1.0" encoding="UTF-8" standalone="no"?>
<!DOCTYPE svg PUBLIC "-//W3C//DTD SVG 1.1//EN" "http://www.w3.org/Graphics/SVG/1.1/DTD/svg11.dtd">
<svg width="100%" height="100%" viewBox="0 0 80 80" version="1.1" xmlns="http://www.w3.org/2000/svg" xmlns:xlink="http://www.w3.org/1999/xlink" xml:space="preserve" xmlns:serif="http://www.serif.com/" style="fill-rule:evenodd;clip-rule:evenodd;stroke-linejoin:round;stroke-miterlimit:2;">
    <g transform="matrix(0.259459,0,0,0.259459,40,40)">
        <g transform="matrix(1,0,0,1,-154.166667,-154.166667)">
            <g transform="matrix(4.166667,0,0,4.166667,0,0)">
                <path d="M30,66.562L30,60C28.229,60 26.667,59.375 25.312,58.125C24.062,56.771 23.438,55.208 23.438,53.438L23.438,50L7.344,34.062C6.927,35.729 6.719,37.708 6.719,40C6.719,46.771 8.958,52.708 13.438,57.812C17.917,62.812 23.438,65.729 30,66.562ZM59.844,36.719L66.562,36.719C66.667,37.448 66.719,38.542 66.719,40C66.719,49.271 63.438,57.188 56.875,63.75C50.417,70.208 42.604,73.438 33.438,73.438C24.167,73.438 16.25,70.208 9.688,63.75C3.229,57.188 0,49.271 0,40C0,30.833 3.229,23.021 9.688,16.562C16.25,10 24.167,6.719 33.438,6.719C36.667,6.719 40,7.24 43.438,8.281L43.438,16.719C43.438,18.49 42.76,20.052 41.406,21.406C40.052,22.76 38.49,23.438 36.719,23.438L30,23.438L30,30C30,30.938 29.688,31.771 29.062,32.5C28.438,33.125 27.656,33.438 26.719,33.438L20,33.438L20,40L40,40C40.938,40 41.719,40.365 42.344,41.094C43.073,41.719 43.438,42.5 43.438,43.438L43.438,53.438L46.719,53.438C49.948,53.438 52.083,54.948 53.125,57.969C57.708,53.073 60,47.083 60,40C60,38.542 59.948,37.448 59.844,36.719ZM67.344,10L67.344,8.438C67.344,6.875 66.771,5.521 65.625,4.375C64.583,3.229 63.281,2.656 61.719,2.656C60.156,2.656 58.802,3.229 57.656,4.375C56.615,5.521 56.094,6.875 56.094,8.438L56.094,10L67.344,10ZM70,10C70.938,10 71.719,10.365 72.344,11.094C73.073,11.719 73.438,12.5 73.438,13.438L73.438,26.719C73.438,27.656 73.073,28.438 72.344,29.062C71.719,29.688 70.938,30 70,30L53.438,30C52.5,30 51.667,29.688 50.938,29.062C50.312,28.438 50,27.656 50,26.719L50,13.438C50,12.5 50.312,11.719 50.938,11.094C51.667,10.365 52.5,10 53.438,10L53.438,8.438C53.438,6.146 54.219,4.167 55.781,2.5C57.448,0.833 59.427,0 61.719,0C64.01,0 65.938,0.833 67.5,2.5C69.167,4.167 70,6.146 70,8.438L70,10Z" style="fill:rgb(140,140,140);fill-rule:nonzero;"/>
            </g>
        </g>
    </g>
</svg>
